<?xml version="1.0" encoding="UTF-8" standalone="no"?>
<!-- Created with Inkscape (http://www.inkscape.org/) -->

<svg
   version="1.1"
   id="svg1"
   width="500"
   height="500"
   viewBox="0 0 500 500"
   sodipodi:docname="logo-smclic.svg"
   inkscape:version="1.3.2 (091e20e, 2023-11-25, custom)"
   inkscape:export-filename="Smclic-logo.png"
   inkscape:export-xdpi="96"
   inkscape:export-ydpi="96"
   xmlns:inkscape="http://www.inkscape.org/namespaces/inkscape"
   xmlns:sodipodi="http://sodipodi.sourceforge.net/DTD/sodipodi-0.dtd"
   xmlns="http://www.w3.org/2000/svg"
   xmlns:svg="http://www.w3.org/2000/svg">
  <defs
     id="defs1" />
  <sodipodi:namedview
     id="namedview1"
     pagecolor="#ffffff"
     bordercolor="#666666"
     borderopacity="1.0"
     inkscape:showpageshadow="2"
     inkscape:pageopacity="0.0"
     inkscape:pagecheckerboard="0"
     inkscape:deskcolor="#d1d1d1"
     inkscape:zoom="1.582"
     inkscape:cx="256.32111"
     inkscape:cy="250"
     inkscape:window-width="1680"
     inkscape:window-height="987"
     inkscape:window-x="-8"
     inkscape:window-y="-8"
     inkscape:window-maximized="1"
     inkscape:current-layer="g6" />
  <g
     inkscape:groupmode="layer"
     inkscape:label="Image"
     id="g1">
    <g
       id="g6"
       transform="matrix(0.97075531,0,0,0.97423984,124.29142,12.90242)">
      <path
         id="path1"
         style="fill:#cbacf9;fill-opacity:1;stroke-width:0.917662"
         d="m 164.4228,109.30819 c -1.81135,0.0198 -3.64597,0.0905 -5.50338,0.21487 -26.03811,1.74389 -73.240462,19.10333 -92.980697,32.43992 -9.518632,6.43082 -8.272341,11.0776 -5.647092,15.0391 6.352997,9.58652 4.361117,13.9135 44.913609,-1.95205 42.2747,-16.53924 53.71621,-23.08281 69.78714,-18.98687 34.74529,8.85547 38.78104,48.36149 8.754,68.52172 -3.41298,2.29148 -12.26475,5.46358 -48.21079,19.5459 -58.292972,22.8377 -61.480892,24.75245 -57.881682,34.76344 4.57429,12.72286 6.5715,14.56627 78.850812,-13.58053 44.78387,-17.43954 66.00464,-24.90542 80.88676,-3.93837 15.45498,21.7742 -16.08794,20.71192 -49.41505,35.04634 -12.778,5.49597 -9.23172,12.16905 -8.02693,14.7183 7.6093,16.10066 6.04876,15.85543 20.38351,12.69403 78.25173,-17.25748 101.87206,-76.04318 29.18113,-96.21179 -5.84328,-1.6212 -7.86381,-1.39265 -4.41446,-6.60088 28.85537,-43.56847 -4.52561,-92.32744 -60.67688,-91.71313 z m -27.41775,59.03829 c -0.30597,0.11681 -0.72476,0.28232 -1.03834,0.40243 0.0266,0.5663 0.17818,0.84302 0.52019,0.40789 0.20126,-0.25607 0.36648,-0.52992 0.51815,-0.81032 z m 20.58051,0.59727 c -0.32549,-0.007 -1.05936,0.24055 -1.90665,0.57541 0.15895,0.34195 0.31543,0.68426 0.44529,1.03612 0.33887,-0.22213 0.66576,-0.45945 0.97155,-0.72292 0.73694,-0.63495 0.80855,-0.88234 0.48981,-0.88861 z m 5.47302,0.25858 c 0.0642,-0.0446 -0.82449,0.53008 -1.74472,0.97784 -0.0455,0.0714 -0.0944,0.14089 -0.14169,0.21123 -0.0266,0.1094 -0.0107,0.0407 -0.0344,0.13656 0.58122,-0.39641 1.88978,-1.30404 1.92081,-1.32563 z m -1.16989,0.29134 c 0.0219,-0.0285 -0.0947,-0.0211 -0.11739,0.008 -0.1065,0.1336 -0.1914,0.28023 -0.28337,0.42246 0.13876,-0.13961 0.28414,-0.27511 0.40076,-0.42975 z"
         sodipodi:nodetypes="sssccssccsssscscsccsccccscscccsccccc" />
      <path
         id="path1-7"
         style="fill:#cbacf9;fill-opacity:1;stroke-width:0.95807"
         d="m 53.478146,85.306481 c -7.316038,0.11474 -17.491581,3.60403 -29.670437,10.454868 -78.076227,43.919381 -42.778712,139.945471 46.158484,125.572661 1.476885,-0.23867 6.245635,-1.68295 10.597015,-3.20963 14.773293,-5.18308 74.278542,-32.18734 76.128712,-34.54817 4.21917,-5.38377 2.38526,-14.22059 -3.64568,-17.56779 -6.76903,-3.75681 -9.34133,-3.04806 -45.15452,12.45964 -47.558673,20.59366 -61.008287,21.38325 -78.440452,8.96332 C -0.01461885,166.43776 8.1086482,131.42617 47.128387,114.52999 62.848202,107.72307 66.932923,103.51587 65.992564,95.099779 65.249734,88.451601 60.794184,85.191741 53.478146,85.306481 Z M 183.84538,114.82068 c 0.13459,0.15697 0.19795,0.21356 0.505,0.58539 2.86019,1.27758 3.93752,1.63916 6.6918,3.49231 1.2132,0.607 1.80187,0.88686 4.42833,2.21126 0.1697,0.0856 0.33538,0.17888 0.505,0.26463 -3.73225,-2.51963 -7.78533,-4.72209 -12.13013,-6.55359 z m 18.75151,31.09997 c 0.22258,0.31978 0.4481,0.63739 0.66596,0.96028 1.24371,0.32408 0.89085,0.032 -0.66596,-0.96028 z" />
      <path
         id="path1-8"
         style="fill:#cbacf9;fill-opacity:1;stroke-width:0.917662"
         d="m 164.89665,108.44039 c -1.81135,0.0198 -3.64597,0.0905 -5.50338,0.21487 -26.03811,1.74389 -73.240458,19.10333 -92.980697,32.43992 -9.51863,6.43082 -8.27234,11.0776 -5.64709,15.0391 6.353,9.58652 4.36112,13.9135 44.913607,-1.95205 42.2747,-16.53924 53.71621,-23.08281 69.78714,-18.98687 34.74529,8.85547 38.78104,48.36149 8.754,68.52172 -3.41298,2.29148 -12.26475,5.46358 -48.21079,19.5459 -58.292968,22.8377 -61.480888,24.75245 -57.881678,34.76344 4.57429,12.72286 6.5715,14.56627 78.850808,-13.58053 44.78387,-17.43954 66.00464,-24.90542 80.88676,-3.93837 15.45498,21.7742 -55.15718,32.39077 -88.48429,46.72519 -12.778,5.49597 -5.3248,12.81788 -4.12001,15.36713 7.6093,16.10066 41.21108,3.52775 55.54583,0.36635 78.25173,-17.25748 101.87206,-76.04318 29.18113,-96.21179 -5.84328,-1.6212 -7.86381,-1.39265 -4.41446,-6.60088 28.85537,-43.56847 -4.52561,-92.32744 -60.67688,-91.71313 z m -27.41775,59.03829 c -0.30597,0.11681 -0.72476,0.28232 -1.03834,0.40243 0.0266,0.5663 0.17818,0.84302 0.52019,0.40789 0.20126,-0.25607 0.36648,-0.52992 0.51815,-0.81032 z m 20.58051,0.59727 c -0.32549,-0.007 -1.05936,0.24055 -1.90665,0.57541 0.15895,0.34195 0.31543,0.68426 0.44529,1.03612 0.33887,-0.22213 0.66576,-0.45945 0.97155,-0.72292 0.73694,-0.63495 0.80855,-0.88234 0.48981,-0.88861 z m 5.47302,0.25858 c 0.0642,-0.0446 -0.82449,0.53008 -1.74472,0.97784 -0.0455,0.0714 -0.0944,0.14089 -0.14169,0.21123 -0.0266,0.1094 -0.0107,0.0407 -0.0344,0.13656 0.58122,-0.39641 1.88978,-1.30404 1.92081,-1.32563 z m -1.16989,0.29134 c 0.0219,-0.0285 -0.0947,-0.0211 -0.11739,0.008 -0.1065,0.1336 -0.1914,0.28023 -0.28337,0.42246 0.13876,-0.13961 0.28414,-0.27511 0.40076,-0.42975 z"
         sodipodi:nodetypes="sssccssccsssscscsccsccccscscccsccccc" />
      <path
         id="path1-7-8"
         style="fill:#cbacf9;fill-opacity:1;stroke-width:0.95807"
         d="m 53.300839,86.385148 c -7.31603,0.11474 -17.49158,3.60403 -29.67043,10.454871 -78.07623,43.919381 -42.778709,139.945471 46.15848,125.572661 1.47689,-0.23867 6.24564,-1.68295 10.597019,-3.20963 14.77329,-5.18308 74.278542,-32.18734 76.128712,-34.54817 4.21917,-5.38377 2.38526,-14.22059 -3.64568,-17.56779 -6.76903,-3.75681 -9.34133,-3.04806 -45.15452,12.45964 -47.558671,20.59366 -61.008291,21.38325 -78.440451,8.96332 -29.46588975,-20.99362 -21.3426197,-56.00521 17.67712,-72.90139 15.71981,-6.80692 19.80453,-11.01412 18.86417,-19.430211 -0.74283,-6.648181 -5.19838,-9.908041 -12.51442,-9.793301 z M 183.66808,115.89935 c 0.13459,0.15697 0.19795,0.21356 0.505,0.58539 2.86019,1.27758 3.93752,1.63916 6.6918,3.49231 1.2132,0.607 1.80187,0.88686 4.42833,2.21126 0.1697,0.0856 0.33538,0.17888 0.505,0.26463 -3.73225,-2.51963 -7.78533,-4.72209 -12.13013,-6.55359 z m 18.75151,31.09997 c 0.22258,0.31978 0.4481,0.63739 0.66596,0.96028 1.24371,0.32408 0.89085,0.032 -0.66596,-0.96028 z" />
      <path
         id="path1-8-5"
         style="fill:#cbacf9;fill-opacity:0.996078;stroke-width:0.917662"
         d="m 164.43694,108.54419 c -1.81135,0.0198 -3.64597,0.0905 -5.50338,0.21487 -26.03811,1.74389 -73.240453,19.10333 -92.980693,32.43992 -9.51863,6.43082 -8.27234,11.0776 -5.64709,15.0391 6.353,9.58652 4.36112,13.9135 44.913603,-1.95205 42.2747,-16.53924 53.71621,-23.08281 69.78714,-18.98687 34.74529,8.85547 38.78104,48.36149 8.754,68.52172 -3.41298,2.29148 -12.26475,5.46358 -48.21079,19.5459 -58.292963,22.8377 -61.480883,24.75245 -57.881673,34.76344 4.57429,12.72286 6.5715,14.56627 78.850803,-13.58053 44.78387,-17.43954 66.00464,-24.90542 80.88676,-3.93837 15.45498,21.7742 -55.15718,32.39077 -88.48429,46.72519 -12.778,5.49597 -5.3248,12.81788 -4.12001,15.36713 7.6093,16.10066 41.21108,3.52775 55.54583,0.36635 78.25173,-17.25748 101.87206,-76.04318 29.18113,-96.21179 -5.84328,-1.6212 -7.86381,-1.39265 -4.41446,-6.60088 28.85537,-43.56847 -4.52561,-92.32744 -60.67688,-91.71313 z m -27.41775,59.03829 c -0.30597,0.11681 -0.72476,0.28232 -1.03834,0.40243 0.0266,0.5663 0.17818,0.84302 0.52019,0.40789 0.20126,-0.25607 0.36648,-0.52992 0.51815,-0.81032 z m 20.58051,0.59727 c -0.32549,-0.007 -1.05936,0.24055 -1.90665,0.57541 0.15895,0.34195 0.31543,0.68426 0.44529,1.03612 0.33887,-0.22213 0.66576,-0.45945 0.97155,-0.72292 0.73694,-0.63495 0.80855,-0.88234 0.48981,-0.88861 z m 5.47302,0.25858 c 0.0642,-0.0446 -0.82449,0.53008 -1.74472,0.97784 -0.0455,0.0714 -0.0944,0.14089 -0.14169,0.21123 -0.0266,0.1094 -0.0107,0.0407 -0.0344,0.13656 0.58122,-0.39641 1.88978,-1.30404 1.92081,-1.32563 z m -1.16989,0.29134 c 0.0219,-0.0285 -0.0947,-0.0211 -0.11739,0.008 -0.1065,0.1336 -0.1914,0.28023 -0.28337,0.42246 0.13876,-0.13961 0.28414,-0.27511 0.40076,-0.42975 z"
         sodipodi:nodetypes="sssccssccsssscscsccsccccscscccsccccc" />
      <path
         id="path1-7-8-0"
         style="fill:#cbacf9;fill-opacity:1;stroke-width:0.95807"
         d="m 54.794594,84.54248 c -7.31603,0.11474 -17.49158,3.60403 -29.67043,10.454873 -78.076232,43.919377 -42.778712,139.945467 46.15848,125.572657 1.47689,-0.23867 6.24564,-1.68295 10.59702,-3.20963 14.77329,-5.18308 74.278536,-32.18734 76.128706,-34.54817 4.21917,-5.38377 2.38526,-14.22059 -3.64568,-17.56779 -6.76903,-3.75681 -9.34133,-3.04806 -45.15452,12.45964 -47.558666,20.59366 -61.008286,21.38325 -78.440446,8.96332 -29.4658921,-20.99362 -21.3426201,-56.00521 17.67712,-72.90139 15.71981,-6.80692 19.80453,-11.01412 18.86417,-19.430207 -0.74283,-6.648183 -5.19838,-9.908043 -12.51442,-9.793303 z m 130.367236,29.5142 c 0.13459,0.15697 0.19795,0.21356 0.505,0.58539 2.86019,1.27758 3.93752,1.63916 6.6918,3.49231 1.2132,0.607 1.80187,0.88686 4.42833,2.21126 0.1697,0.0856 0.33538,0.17888 0.505,0.26463 -3.73225,-2.51963 -7.78533,-4.72209 -12.13013,-6.55359 z m 18.75151,31.09997 c 0.22258,0.31978 0.4481,0.63739 0.66596,0.96028 1.24371,0.32408 0.89085,0.032 -0.66596,-0.96028 z" />
      <text
         xml:space="preserve"
         style="font-style:normal;font-variant:normal;font-weight:normal;font-stretch:normal;font-size:143.776px;line-height:1.25;font-family:'UD Digi Kyokasho NP-B';-inkscape-font-specification:'UD Digi Kyokasho NP-B, Normal';font-variant-ligatures:normal;font-variant-caps:normal;font-variant-numeric:normal;font-variant-east-asian:normal;fill:#cbacf9;fill-opacity:1;stroke:none;stroke-width:3.59441"
         x="-90.932724"
         y="499.33163"
         id="text25"
         transform="matrix(1.2481083,0,-0.02367654,0.80121252,0,0)"><tspan
           sodipodi:role="line"
           id="tspan25"
           style="font-style:normal;font-variant:normal;font-weight:normal;font-stretch:normal;font-size:143.776px;font-family:'UD Digi Kyokasho NP-B';-inkscape-font-specification:'UD Digi Kyokasho NP-B, Normal';font-variant-ligatures:normal;font-variant-caps:normal;font-variant-numeric:normal;font-variant-east-asian:normal;fill:#cbacf9;fill-opacity:1;stroke-width:3.59441"
           x="-90.932724"
           y="499.33163">S</tspan></text>
      <text
         xml:space="preserve"
         style="font-style:normal;font-variant:normal;font-weight:normal;font-stretch:normal;font-size:88.0641px;line-height:1.25;font-family:'UD Digi Kyokasho NP-B';-inkscape-font-specification:'UD Digi Kyokasho NP-B, Normal';font-variant-ligatures:normal;font-variant-caps:normal;font-variant-numeric:normal;font-variant-east-asian:normal;fill:#cbacf9;fill-opacity:1;stroke:none;stroke-width:2.2016"
         x="-6.7148552"
         y="485.4216"
         id="text25-7"
         transform="scale(1.2241536,0.81689098)"><tspan
           sodipodi:role="line"
           id="tspan25-1"
           style="font-style:normal;font-variant:normal;font-weight:normal;font-stretch:normal;font-size:88.0641px;font-family:'UD Digi Kyokasho NP-B';-inkscape-font-specification:'UD Digi Kyokasho NP-B, Normal';font-variant-ligatures:normal;font-variant-caps:normal;font-variant-numeric:normal;font-variant-east-asian:normal;fill:#cbacf9;fill-opacity:1;stroke-width:2.2016"
           x="-6.7148552"
           y="485.4216">MCLIC</tspan></text>
    </g>
  </g>
</svg>
